<svg xmlns="http://www.w3.org/2000/svg" viewBox="0 0 500 500">
    <path d="M 369.629 411.699 C 367.857 419.383 360.763 419.383 356.037 419.383 C 345.991 419.97 314.675 400.473 314.675 400.473 C 291.039 388.654 272.132 385.107 269.766 384.519 C 263.854 382.155 257.356 380.382 254.402 379.2 C 249.678 378.014 250.264 381.567 250.264 381.567 C 250.264 385.699 250.264 381.567 250.264 385.699 C 251.447 401.062 252.628 415.84 254.402 431.202 C 254.992 435.927 253.808 437.699 249.678 438.881 C 248.494 438.881 247.311 439.47 246.126 439.47 C 228.402 443.611 210.677 447.745 192.945 451.884 C 191.765 451.884 190.583 452.47 189.403 452.47 C 174.631 456.017 159.859 459.564 145.084 463.109 C 142.722 462.516 139.768 462.516 137.992 464.881 C 129.719 466.061 132.677 459.564 132.083 455.429 C 128.54 432.973 125.587 410.517 122.626 387.473 C 122.037 381.567 119.675 378.014 114.948 375.063 L 114.948 375.659 C 87.178 359.11 65.312 337.839 47.589 313.023 L 20.406 438.881 C 19.223 443.017 15.676 445.973 11.539 445.973 C 10.95 445.973 10.358 445.973 9.766 445.973 C 5.042 444.79 2.086 440.065 3.267 435.335 L 34.583 292.336 C 29.859 284.657 25.722 276.974 22.178 269.294 C 18.63 261.614 15.676 246.841 22.769 240.928 C 32.224 233.839 39.313 237.383 45.226 243.294 L 87.764 47.113 C 88.949 42.384 93.677 39.431 98.401 40.613 C 103.128 41.798 106.085 46.523 104.901 51.251 L 104.901 51.841 C 110.22 54.203 135.629 63.657 172.857 52.432 C 172.857 52.432 197.676 38.251 244.354 53.617 L 227.22 137.523 C 227.22 137.523 198.858 125.704 154.537 143.431 C 154.537 143.431 122.037 153.476 86.587 136.933 L 91.312 113.884 L 59.996 258.065 C 73.586 272.248 85.992 287.612 101.357 300.019 C 106.085 303.562 111.403 307.7 117.312 310.659 C 133.269 319.52 142.722 322.474 161.631 327.201 C 185.265 332.518 223.083 324.834 223.083 324.834 C 254.402 320.112 278.041 329.565 292.81 340.201 C 292.81 340.201 361.355 387.473 366.079 393.972 C 369.629 399.289 371.401 404.02 369.629 411.699 Z M 120.856 249.203 C 120.856 215.524 148.04 187.746 182.312 187.746 C 215.993 187.746 243.765 214.932 243.765 249.203 C 243.765 282.88 216.585 310.659 182.312 310.659 C 148.63 310.659 120.856 282.88 120.856 249.203 Z M 343.038 166.474 C 343.038 143.431 361.945 124.52 384.992 124.52 C 408.032 124.52 426.945 143.431 426.945 166.474 C 426.945 189.522 408.032 208.428 384.992 208.428 C 361.945 209.019 343.038 190.114 343.038 166.474 Z M 494.308 170.61 C 497.85 174.155 497.26 178.885 494.898 183.022 C 482.489 206.655 465.943 226.747 445.262 243.294 C 436.99 249.793 445.262 242.7 436.99 249.793 C 434.038 252.155 428.717 266.339 429.897 271.067 C 431.672 281.705 440.534 294.109 439.354 304.156 C 438.763 307.113 408.623 317.745 396.218 317.745 C 395.626 317.745 375.537 320.112 356.625 316.566 C 345.991 316.566 313.49 305.339 314.08 302.385 C 315.264 286.433 326.494 269.885 328.263 254.519 C 328.856 249.793 327.084 246.841 323.538 243.294 C 298.723 219.659 284.537 190.114 276.856 157.02 C 275.674 151.112 275.674 141.069 281.581 138.11 C 293.992 132.794 296.946 145.794 302.266 152.887 C 312.898 169.431 320.579 187.746 335.944 201.337 C 345.398 209.612 354.851 217.293 367.857 220.839 C 396.81 228.524 419.852 216.704 441.717 200.747 C 452.353 193.066 461.22 183.61 470.082 174.155 C 472.442 171.203 477.171 167.068 483.078 166.474 C 487.216 166.474 490.763 167.068 494.308 170.61 Z"></path>
</svg>